<svg width="216" height="26" viewBox="0 0 216 26" fill="none" xmlns="http://www.w3.org/2000/svg">
<g clip-path="url(#clip0_54235_888)">
<path d="M22.1499 0.5H6.86274C2.35187 0.5 0 2.87507 0 7.2072V25.5H7.17789V7.95297C7.17538 7.76236 7.21221 7.57331 7.28604 7.39786C7.35986 7.22241 7.46906 7.06441 7.60667 6.93393C7.74429 6.80345 7.90731 6.70334 8.08535 6.63998C8.26338 6.57662 8.45253 6.5514 8.64075 6.56593H20.2637C20.4759 6.53726 20.6918 6.55773 20.895 6.62578C21.0982 6.69384 21.2834 6.8077 21.4366 6.95874C21.5898 7.10978 21.7069 7.29404 21.7792 7.49757C21.8514 7.7011 21.8768 7.91856 21.8535 8.13348V11.9003C21.8535 12.8504 21.2468 13.3254 20.2637 13.3254H10.6681V19.4531H22.1499C26.5761 19.4531 28.9891 17.2538 28.9891 12.5321V7.39721C28.9844 2.77532 26.6749 0.5 22.1499 0.5Z" fill="white"/>
<path d="M38.5053 17.724V0.5H31.3086V18.5743C31.3086 23.1439 33.6322 25.4952 38.176 25.4952H60.2836V19.4531H40.1046C39.0886 19.4531 38.5053 18.7975 38.5053 17.724Z" fill="white"/>
<path d="M84.8287 0.5H69.5463C65.0871 0.5 62.707 2.91307 62.707 7.39721V25.4952H69.8896V8.18098C69.8699 7.96574 69.8969 7.74874 69.9687 7.5451C70.0405 7.34147 70.1554 7.15609 70.3054 7.00189C70.4554 6.84769 70.6369 6.72837 70.8372 6.65226C71.0376 6.57615 71.2519 6.54507 71.4654 6.56118H82.9425C83.1542 6.55216 83.3655 6.5881 83.5626 6.6667C83.7597 6.7453 83.9383 6.86479 84.0868 7.01746C84.2353 7.17012 84.3504 7.35257 84.4248 7.55299C84.4991 7.75341 84.5309 7.96735 84.5182 8.18098V13.3491H73.3798V19.4483H84.537V25.4905H91.6867V7.39246C91.6726 3.06983 89.1326 0.5 84.8287 0.5Z" fill="white"/>
<path d="M116.18 0.5H100.874C96.4247 0.5 94.0352 2.91307 94.0352 7.39721V25.4952H101.218V8.18098C101.198 7.96574 101.225 7.74874 101.297 7.5451C101.369 7.34147 101.483 7.15609 101.633 7.00189C101.784 6.84769 101.965 6.72837 102.165 6.65226C102.366 6.57615 102.58 6.54507 102.793 6.56118H114.271C114.482 6.55216 114.694 6.5881 114.891 6.6667C115.088 6.7453 115.266 6.86479 115.415 7.01746C115.563 7.17012 115.679 7.35257 115.753 7.55299C115.827 7.75341 115.859 7.96735 115.846 8.18098V25.4952H122.991V7.39721C122.996 3.06983 120.461 0.5 116.18 0.5Z" fill="white"/>
<path d="M124.883 6.56593H134.398C134.581 6.55094 134.765 6.57681 134.936 6.64169C135.108 6.70658 135.263 6.8089 135.391 6.94135C135.519 7.0738 135.617 7.23312 135.677 7.40798C135.737 7.58284 135.758 7.76892 135.739 7.95297V25.5H142.926V7.95297C142.903 7.7689 142.921 7.58185 142.979 7.40573C143.037 7.2296 143.133 7.06893 143.261 6.93566C143.389 6.80238 143.545 6.69994 143.717 6.63593C143.89 6.57192 144.075 6.54799 144.257 6.56593H153.862V0.5H124.883V6.56593Z" fill="white"/>
<path d="M155.754 7.39721V18.5743C155.754 23.3672 158.346 25.4952 162.56 25.4952H184.668V19.4531H164.291C164.097 19.4718 163.901 19.4462 163.719 19.3781C163.536 19.31 163.37 19.2012 163.235 19.0597C163.099 18.9182 162.997 18.7478 162.936 18.561C162.874 18.3741 162.855 18.1758 162.88 17.9805V16.698C162.863 16.5532 162.878 16.4064 162.924 16.2681C162.969 16.1298 163.045 16.0035 163.145 15.8982C163.245 15.7928 163.366 15.7111 163.501 15.6588C163.636 15.6066 163.78 15.5851 163.924 15.596H182.833V10.4183H163.943C163.8 10.4238 163.657 10.399 163.523 10.3456C163.39 10.2922 163.269 10.2113 163.168 10.1081C163.067 10.0049 162.988 9.88163 162.937 9.74612C162.886 9.61061 162.863 9.46584 162.871 9.32101V8.14298C162.849 7.93516 162.872 7.725 162.94 7.5274C163.007 7.3298 163.117 7.14959 163.261 6.99956C163.405 6.84952 163.58 6.73332 163.773 6.65921C163.967 6.58509 164.174 6.55487 164.381 6.57068H184.682V0.5H162.574C158.449 0.5 155.754 2.56156 155.754 7.39721Z" fill="white"/>
<path d="M195.853 6.56593H215.999V0.5H193.891C189.686 0.5 187.09 2.61381 187.09 7.24045V18.579C187.09 22.7639 188.863 25.5 193.891 25.5H215.999V19.4578H195.773C195.558 19.4511 195.346 19.4013 195.149 19.3112C194.953 19.2211 194.777 19.0925 194.63 18.933C194.484 18.7735 194.37 18.5862 194.295 18.3819C194.221 18.1776 194.188 17.9604 194.197 17.743V8.24273C194.183 8.01915 194.216 7.79503 194.294 7.58529C194.372 7.37555 194.493 7.18501 194.65 7.02635C194.806 6.8677 194.995 6.74457 195.202 6.66518C195.41 6.58579 195.631 6.55196 195.853 6.56593Z" fill="white"/>
</g>
<defs>
<clipPath id="clip0_54235_888">
<rect width="216" height="25" fill="white" transform="translate(0 0.5)"/>
</clipPath>
</defs>
</svg>
