<svg width="1096" height="74" viewBox="0 0 1096 74" fill="none" xmlns="http://www.w3.org/2000/svg">
<path d="M0 37L24 1V73L0 37Z" fill="#E85625"/>
<rect width="1048" height="74" transform="translate(24)" fill="#E85625"/>
<path d="M438.114 21H418.546C412.772 21 409.762 24.0401 409.762 29.5852V53H418.949V30.5398C418.946 30.2958 418.993 30.0538 419.088 29.8293C419.182 29.6047 419.322 29.4025 419.498 29.2354C419.674 29.0684 419.883 28.9403 420.111 28.8592C420.339 28.7781 420.581 28.7458 420.822 28.7644H435.699C435.971 28.7277 436.247 28.7539 436.507 28.841C436.767 28.9281 437.004 29.0739 437.201 29.2672C437.397 29.4605 437.547 29.6964 437.639 29.9569C437.732 30.2174 437.764 30.4958 437.734 30.7709V35.5924C437.734 36.8085 436.958 37.4165 435.699 37.4165H423.417V45.2599H438.114C443.779 45.2599 446.868 42.4448 446.868 36.4011V29.8284C446.862 23.9124 443.906 21 438.114 21Z" fill="white"/>
<path d="M459.048 43.0467V21H449.836V44.1351C449.836 49.9842 452.81 52.9939 458.626 52.9939H486.924V45.2599H461.095C459.794 45.2599 459.048 44.4209 459.048 43.0467Z" fill="white"/>
<path d="M518.339 21H498.778C493.07 21 490.023 24.0887 490.023 29.8284V52.9939H499.217V30.8317C499.192 30.5561 499.226 30.2784 499.318 30.0177C499.41 29.7571 499.557 29.5198 499.749 29.3224C499.941 29.125 500.174 28.9723 500.43 28.8749C500.687 28.7775 500.961 28.7377 501.234 28.7583H515.925C516.196 28.7468 516.466 28.7928 516.719 28.8934C516.971 28.994 517.199 29.1469 517.39 29.3423C517.58 29.5378 517.727 29.7713 517.822 30.0278C517.917 30.2844 517.958 30.5582 517.942 30.8317V37.4469H503.685V45.2538H517.966V52.9878H527.117V29.8223C527.099 24.2894 523.848 21 518.339 21Z" fill="white"/>
<path d="M558.471 21H538.879C533.184 21 530.125 24.0887 530.125 29.8284V52.9939H539.319V30.8317C539.293 30.5561 539.328 30.2784 539.42 30.0177C539.512 29.7571 539.659 29.5198 539.851 29.3224C540.043 29.125 540.275 28.9723 540.532 28.8749C540.788 28.7775 541.062 28.7377 541.336 28.7583H556.026C556.297 28.7468 556.568 28.7928 556.82 28.8934C557.072 28.994 557.301 29.1469 557.491 29.3423C557.681 29.5378 557.829 29.7713 557.924 30.0278C558.019 30.2844 558.06 30.5582 558.043 30.8317V52.9939H567.189V29.8284C567.195 24.2894 563.95 21 558.471 21Z" fill="white"/>
<path d="M569.613 28.7644H581.793C582.027 28.7452 582.262 28.7783 582.482 28.8614C582.702 28.9444 582.901 29.0754 583.064 29.2449C583.228 29.4145 583.353 29.6184 583.43 29.8422C583.507 30.066 583.534 30.3042 583.509 30.5398V53H592.709V30.5398C592.679 30.3042 592.702 30.0648 592.776 29.8393C592.85 29.6139 592.974 29.4082 593.137 29.2376C593.301 29.0671 593.501 28.9359 593.722 28.854C593.942 28.7721 594.179 28.7414 594.413 28.7644H606.707V21H569.613V28.7644Z" fill="white"/>
<path d="M609.125 29.8284V44.1351C609.125 50.27 612.442 52.9939 617.837 52.9939H646.135V45.2599H620.053C619.804 45.2839 619.554 45.2511 619.32 45.1639C619.086 45.0768 618.874 44.9375 618.7 44.7564C618.527 44.5754 618.396 44.3572 618.317 44.118C618.239 43.8789 618.215 43.625 618.246 43.3751V41.7334C618.225 41.5481 618.244 41.3602 618.302 41.1832C618.361 41.0062 618.457 40.8445 618.585 40.7096C618.713 40.5748 618.869 40.4702 619.041 40.4033C619.214 40.3364 619.399 40.309 619.583 40.3228H643.787V33.6954H619.607C619.424 33.7024 619.24 33.6707 619.07 33.6024C618.899 33.534 618.744 33.4305 618.615 33.2984C618.485 33.1663 618.385 33.0085 618.32 32.835C618.254 32.6616 618.225 32.4763 618.234 32.2909V30.783C618.206 30.517 618.236 30.248 618.323 29.9951C618.409 29.7421 618.549 29.5115 618.734 29.3194C618.918 29.1274 619.142 28.9787 619.39 28.8838C619.638 28.7889 619.903 28.7502 620.167 28.7705H646.153V21H617.855C612.575 21 609.125 23.6388 609.125 29.8284Z" fill="white"/>
<path d="M660.455 28.7644H686.242V21H657.944C652.562 21 649.238 23.7057 649.238 29.6278V44.1412C649.238 49.4978 651.508 53 657.944 53H686.242V45.266H660.353C660.077 45.2574 659.806 45.1936 659.555 45.0783C659.303 44.963 659.077 44.7985 658.89 44.5943C658.702 44.3901 658.557 44.1503 658.461 43.8888C658.366 43.6273 658.324 43.3494 658.336 43.0711V30.9107C658.317 30.6245 658.359 30.3376 658.459 30.0692C658.559 29.8007 658.714 29.5568 658.915 29.3537C659.115 29.1507 659.356 28.9931 659.622 28.8914C659.888 28.7898 660.172 28.7465 660.455 28.7644Z" fill="white"/>
<path d="M1096 37L1072 1V73L1096 37Z" fill="#E85625"/>
</svg>
