<svg width="278" height="32" viewBox="0 0 278 32" fill="none" xmlns="http://www.w3.org/2000/svg">
<path d="M29.1136 0H9.54603C3.77211 0 0.761719 3.04009 0.761719 8.58522V32H9.94942V9.53981C9.94621 9.29582 9.99335 9.05383 10.0878 8.82926C10.1823 8.60469 10.3221 8.40245 10.4983 8.23543C10.6744 8.06841 10.8831 7.94027 11.111 7.85917C11.3388 7.77808 11.581 7.7458 11.8219 7.76439H26.6992C26.9708 7.72769 27.2472 7.75389 27.5073 7.841C27.7674 7.92811 28.0045 8.07385 28.2006 8.26718C28.3966 8.46052 28.5466 8.69637 28.639 8.95689C28.7315 9.2174 28.7641 9.49575 28.7342 9.77085V14.5924C28.7342 15.8085 27.9576 16.4165 26.6992 16.4165H14.4168V24.2599H29.1136C34.7791 24.2599 37.8678 21.4448 37.8678 15.4011V8.82842C37.8617 2.91241 34.9055 0 29.1136 0Z" fill="white"/>
<path d="M50.0477 22.0467V0H40.8359V23.1351C40.8359 28.9842 43.8102 31.9939 49.6263 31.9939H77.9239V24.2599H52.0948C50.7943 24.2599 50.0477 23.4209 50.0477 22.0467Z" fill="white"/>
<path d="M109.339 0H89.7776C84.07 0 81.0234 3.08873 81.0234 8.82842V31.9939H90.2172V9.83165C90.1919 9.55615 90.2264 9.27839 90.3183 9.01773C90.4102 8.75708 90.5573 8.51979 90.7493 8.32242C90.9413 8.12504 91.1736 7.97232 91.4301 7.8749C91.6865 7.77747 91.9609 7.73769 92.2341 7.75831H106.925C107.196 7.74676 107.466 7.79277 107.719 7.89338C107.971 7.99398 108.199 8.14693 108.39 8.34234C108.58 8.53776 108.727 8.77128 108.822 9.02782C108.917 9.28436 108.958 9.55821 108.942 9.83165V16.4469H94.6846V24.2538H108.966V31.9878H118.117V8.82234C118.099 3.28938 114.848 0 109.339 0Z" fill="white"/>
<path d="M149.471 0H129.879C124.184 0 121.125 3.08873 121.125 8.82842V31.9939H130.319V9.83165C130.293 9.55615 130.328 9.27839 130.42 9.01773C130.512 8.75708 130.659 8.51979 130.851 8.32242C131.043 8.12504 131.275 7.97232 131.532 7.8749C131.788 7.77747 132.062 7.73769 132.336 7.75831H147.026C147.297 7.74676 147.568 7.79277 147.82 7.89338C148.072 7.99398 148.301 8.14693 148.491 8.34234C148.681 8.53776 148.829 8.77128 148.924 9.02782C149.019 9.28436 149.06 9.55821 149.043 9.83165V31.9939H158.189V8.82842C158.195 3.28938 154.95 0 149.471 0Z" fill="white"/>
<path d="M160.613 7.76439H172.793C173.027 7.7452 173.262 7.77831 173.482 7.86137C173.702 7.94443 173.901 8.07539 174.064 8.24492C174.228 8.41446 174.353 8.6184 174.43 8.84221C174.507 9.06603 174.534 9.30422 174.509 9.53981V32H183.709V9.53981C183.679 9.30419 183.702 9.06477 183.776 8.83933C183.85 8.61389 183.974 8.40823 184.137 8.23764C184.301 8.06705 184.501 7.93592 184.722 7.85399C184.942 7.77205 185.179 7.74143 185.413 7.76439H197.707V0H160.613V7.76439Z" fill="white"/>
<path d="M200.125 8.82842V23.1351C200.125 29.27 203.442 31.9939 208.837 31.9939H237.135V24.2599H211.053C210.804 24.2839 210.554 24.2511 210.32 24.1639C210.086 24.0768 209.874 23.9375 209.7 23.7564C209.527 23.5754 209.396 23.3572 209.317 23.118C209.239 22.8789 209.215 22.625 209.246 22.3751V20.7334C209.225 20.5481 209.244 20.3602 209.302 20.1832C209.361 20.0062 209.457 19.8445 209.585 19.7096C209.713 19.5748 209.869 19.4702 210.041 19.4033C210.214 19.3364 210.399 19.309 210.583 19.3228H234.787V12.6954H210.607C210.424 12.7024 210.24 12.6707 210.07 12.6024C209.899 12.534 209.744 12.4305 209.615 12.2984C209.485 12.1663 209.385 12.0085 209.32 11.835C209.254 11.6616 209.225 11.4763 209.234 11.2909V9.78301C209.206 9.517 209.236 9.248 209.323 8.99507C209.409 8.74214 209.549 8.51148 209.734 8.31943C209.918 8.12738 210.142 7.97865 210.39 7.88379C210.638 7.78892 210.903 7.75023 211.167 7.77047H237.153V0H208.855C203.575 0 200.125 2.6388 200.125 8.82842Z" fill="white"/>
<path d="M251.455 7.76439H277.242V0H248.944C243.562 0 240.238 2.70568 240.238 8.62778V23.1412C240.238 28.4978 242.508 32 248.944 32H277.242V24.266H251.353C251.077 24.2574 250.806 24.1936 250.555 24.0783C250.303 23.963 250.077 23.7985 249.89 23.5943C249.702 23.3901 249.557 23.1503 249.461 22.8888C249.366 22.6273 249.324 22.3494 249.336 22.0711V9.9107C249.317 9.62452 249.359 9.33764 249.459 9.06917C249.559 8.8007 249.714 8.55681 249.915 8.35373C250.115 8.15065 250.356 7.99305 250.622 7.89143C250.888 7.78981 251.172 7.74651 251.455 7.76439Z" fill="white"/>
</svg>
