<svg width="120" height="132" viewBox="0 0 120 132" fill="none" xmlns="http://www.w3.org/2000/svg">
<path fill-rule="evenodd" clip-rule="evenodd" d="M83.0888 52.6625H66.9956C66.5559 52.6625 66.1962 52.3028 66.1962 51.8632V50.9839C66.1962 46.7341 64.5576 42.5376 61.6001 39.1937C58.5093 35.7166 56.9106 31.227 57.1105 26.551C57.4835 17.2787 65.0372 9.72503 74.3095 9.36533C79.2518 9.1655 83.9279 10.9374 87.4849 14.3612C91.042 17.7718 93.0003 22.3812 93.0003 27.3104C93.0003 31.6403 91.4283 35.8233 88.5907 39.0873C85.5665 42.5644 83.8879 46.9074 83.8879 51.3038V51.8633C83.888 52.3029 83.5285 52.6626 83.0888 52.6626V52.6625ZM67.7949 51.0638H82.2895C82.3561 46.3611 84.1546 41.7383 87.3786 38.0347C89.9631 35.0638 91.3887 31.2538 91.3887 27.3104H91.3886C91.3886 22.8208 89.6034 18.6376 86.3661 15.5202C83.1288 12.4028 78.8657 10.7908 74.363 10.9773C65.9167 11.3104 59.0424 18.198 58.6961 26.631C58.5229 30.8808 59.975 34.9706 62.786 38.1414C66.01 41.7784 67.7818 46.3346 67.7818 50.9839V51.0638H67.7949Z" fill="black"/>
<path fill-rule="evenodd" clip-rule="evenodd" d="M85.13 56.1396H64.9603C64.0811 56.1396 63.375 55.4202 63.375 54.5543V52.6625C63.375 51.7832 64.0944 51.0771 64.9603 51.0771H85.1166C85.9959 51.0771 86.702 51.7966 86.702 52.6625V54.5543C86.7153 55.4335 85.9959 56.1396 85.13 56.1396ZM85.1166 52.6625L64.9605 52.6758L64.9738 54.5676L85.1301 54.5543L85.1166 52.6625Z" fill="black"/>
<path fill-rule="evenodd" clip-rule="evenodd" d="M83.8235 59.6171H66.265C65.3858 59.6171 64.6797 58.8977 64.6797 58.0318V56.14C64.6797 55.2608 65.3991 54.5547 66.265 54.5547H83.8102C84.6894 54.5547 85.3955 55.2741 85.3955 56.14V58.0318C85.4088 58.9111 84.7028 59.6171 83.8235 59.6171ZM83.8102 56.14L66.2648 56.1534L66.2782 58.0451L83.8235 58.0318L83.8102 56.14Z" fill="black"/>
<path fill-rule="evenodd" clip-rule="evenodd" d="M82.0793 63.0942H68.0111C67.1319 63.0942 66.4258 62.3748 66.4258 61.5088V59.6171C66.4258 58.7378 67.1452 58.0317 68.0111 58.0317H82.0793C82.9586 58.0317 83.6646 58.7511 83.6646 59.6171V61.5088C83.678 62.3881 82.9586 63.0942 82.0793 63.0942ZM82.0793 59.6171L68.0111 59.6304L68.0245 61.5222L82.0927 61.5088L82.0793 59.6171Z" fill="black"/>
<path fill-rule="evenodd" clip-rule="evenodd" d="M75.0449 68.2098C72.1274 68.2098 69.7559 65.8384 69.7559 62.9208V62.2947C69.7559 61.8551 70.1156 61.4954 70.5553 61.4954H79.5211C79.9608 61.4954 80.3205 61.8551 80.3205 62.2947V62.9208C80.3338 65.8384 77.9624 68.2098 75.0449 68.2098ZM71.3681 63.094C71.4613 65.0391 73.0733 66.6111 75.0449 66.6111C77.0166 66.6111 78.6285 65.0524 78.7218 63.094H71.3681ZM71.941 52.6626C71.5547 52.6626 71.2216 52.3961 71.155 51.9965L68.384 36.4094C68.3307 36.1297 68.4373 35.8366 68.6638 35.6501C68.8903 35.4636 69.1967 35.4236 69.4631 35.5168L75.045 37.6884L80.627 35.5168C80.8933 35.4103 81.1999 35.4636 81.4264 35.6501C81.6527 35.8367 81.7594 36.1297 81.7061 36.4094L78.9084 52.0098C78.8285 52.4494 78.4154 52.7292 77.9758 52.6493C77.5361 52.5693 77.2564 52.1563 77.3363 51.7167L79.8808 37.5152L75.338 39.287C75.1514 39.3537 74.9383 39.3537 74.7651 39.287L70.2222 37.5152L72.7401 51.7167C72.82 52.1563 72.527 52.5693 72.0873 52.6493C72.0342 52.6626 71.9942 52.6626 71.941 52.6626ZM74.9649 6.98086C74.5254 6.98086 74.1657 6.62116 74.1657 6.18152V0.799335C74.1657 0.359701 74.5254 0 74.9649 0C75.4046 0 75.7643 0.359701 75.7643 0.799335V6.18152C75.7643 6.62116 75.4046 6.98086 74.9649 6.98086ZM89.0332 12.7361C88.8334 12.7361 88.6202 12.6561 88.4737 12.4963C88.1673 12.1899 88.1673 11.6836 88.4737 11.3639L92.2839 7.55358C92.5903 7.24717 93.0965 7.24717 93.4162 7.55358C93.7227 7.85999 93.7227 8.36624 93.4162 8.68597L89.6061 12.4961C89.454 12.6481 89.2482 12.7344 89.0332 12.7361ZM100.291 26.7644H94.9083C94.4687 26.7644 94.109 26.4047 94.109 25.9651C94.109 25.5254 94.4687 25.1657 94.9083 25.1657H100.291C100.73 25.1657 101.09 25.5254 101.09 25.9651C101.09 26.4047 100.73 26.7644 100.291 26.7644ZM55.1815 26.9243H49.7993C49.3597 26.9243 49 26.5646 49 26.1249C49 25.6853 49.3597 25.3256 49.7993 25.3256H55.1815C55.6212 25.3256 55.9809 25.6853 55.9809 26.1249C55.9809 26.5646 55.6212 26.9243 55.1815 26.9243ZM60.9367 12.856C60.7369 12.856 60.5237 12.776 60.3772 12.6162L56.567 8.80601C56.2606 8.49959 56.2606 7.99322 56.567 7.67348C56.8734 7.36707 57.3797 7.36707 57.6994 7.67348L61.5096 11.4836C61.816 11.7901 61.816 12.2963 61.5096 12.616C61.3497 12.7759 61.1499 12.856 60.9367 12.856Z" fill="black"/>
<path fill-rule="evenodd" clip-rule="evenodd" d="M53.4239 79.2549C53.5775 79.3081 53.7388 79.3353 53.9011 79.3353H86.5536C87.3831 79.3301 88.2053 79.4919 88.9731 79.8114C89.7408 80.1308 90.4389 80.6015 91.0273 81.1965C91.6155 81.7915 92.0824 82.4991 92.401 83.2784C92.7196 84.0577 92.8836 84.8934 92.8836 85.7374C92.8836 86.5815 92.7196 87.4172 92.401 88.1965C92.0824 88.9758 91.6155 89.6833 91.0273 90.2783C90.4389 90.8733 89.7408 91.344 88.9731 91.6635C88.2053 91.9829 87.3831 92.1447 86.5536 92.1395H63.2521C62.8692 92.1525 62.5062 92.3165 62.2399 92.5967C61.9736 92.8769 61.8247 93.2515 61.8247 93.6413C61.8247 94.0311 61.9736 94.4057 62.2399 94.6859C62.5062 94.9662 62.8692 95.1301 63.2521 95.1431H86.5536C87.9902 95.1438 89.4071 94.8035 90.6919 94.1494C91.9766 93.4953 93.0937 92.5453 93.9544 91.3749C94.8152 90.2046 95.3958 88.846 95.6503 87.4073C95.9047 85.9686 95.8259 84.4893 95.4202 83.087L109.288 69.8658C111.884 67.3916 115.806 67.3761 118.221 69.8317C120.609 72.2645 120.591 76.2597 118.178 78.9315L90.9125 109.113C90.4898 109.602 89.9671 109.991 89.3809 110.253C88.7947 110.515 88.1593 110.643 87.5193 110.628H48.8323C47.6156 110.617 46.4365 111.057 45.5162 111.867L44.8121 112.474L21.1538 85.1789C25.5975 81.4876 30.8909 79.0071 36.5361 77.9708C42.1813 76.9344 47.9927 77.3763 53.4239 79.2549ZM0.00486424 98.7615C-0.0142973 99.0515 0.0232755 99.3426 0.115408 99.6178C0.207539 99.893 0.3524 100.147 0.541604 100.365L27.3125 131.251C27.6944 131.691 28.2322 131.959 28.8079 131.996C29.3835 132.032 29.95 131.835 30.383 131.447L43.9044 119.312C44.3353 118.923 44.5974 118.376 44.6334 117.79C44.6693 117.205 44.4763 116.629 44.0963 116.188L17.3254 85.3006C16.943 84.8615 16.4051 84.5945 15.8297 84.558C15.2542 84.5216 14.688 84.7186 14.255 85.106L0.734034 97.2398C0.519792 97.4319 0.345054 97.6652 0.219903 97.9264C0.0947525 98.1876 0.0216671 98.4714 0.00486424 98.7615ZM29.7801 124.657C28.9975 124.657 28.2325 124.421 27.5818 123.979C26.9311 123.536 26.4239 122.907 26.1244 122.171C25.8249 121.436 25.7466 120.626 25.8993 119.845C26.052 119.064 26.4289 118.347 26.9823 117.783C27.5357 117.22 28.2407 116.837 29.0083 116.682C29.7759 116.526 30.5715 116.606 31.2945 116.911C32.0175 117.216 32.6355 117.732 33.0703 118.394C33.505 119.056 33.737 119.835 33.737 120.631C33.7357 121.698 33.3184 122.722 32.5766 123.476C31.8348 124.231 30.8291 124.656 29.7801 124.657V124.657ZM29.7801 119.608C29.9791 119.608 30.1736 119.668 30.3391 119.78C30.5046 119.892 30.6336 120.052 30.7099 120.239C30.7861 120.426 30.8061 120.632 30.7673 120.831C30.7285 121.029 30.6328 121.212 30.4921 121.355C30.3514 121.498 30.1722 121.596 29.977 121.635C29.7819 121.675 29.5796 121.655 29.3957 121.577C29.2119 121.5 29.0547 121.369 28.9442 121.2C28.8336 121.032 28.7746 120.834 28.7746 120.631C28.7751 120.36 28.8812 120.1 29.0696 119.908C29.2581 119.716 29.5135 119.608 29.7801 119.608Z" fill="black"/>
</svg>
