<svg width="161" height="160" viewBox="0 0 161 160" fill="none" xmlns="http://www.w3.org/2000/svg">
<path d="M116.688 100.361L132 126.856L115.284 123.56C114.804 123.466 114.306 123.548 113.882 123.792C113.458 124.036 113.137 124.425 112.979 124.888L107.483 141L92.4915 115.062C101.979 112.643 110.353 107.433 116.688 100.361ZM44.3118 100.353C50.7361 107.55 59.1599 112.671 68.5085 115.062L53.5173 141L48.0215 124.888C47.8631 124.428 47.5445 124.041 47.124 123.798C46.7035 123.554 46.2092 123.47 45.7316 123.56L29 126.856L44.3118 100.353Z" fill="black"/>
<path d="M80.5227 46.7629C79.6886 47.968 78.892 49.1988 78.1339 50.4535C77.0054 52.3035 75.7264 54.4745 74.4098 56.4189C74.0806 56.8909 73.9584 57.2307 73.159 57.8064C72.369 58.3917 72.0493 58.3917 71.4944 58.5616C67.8267 59.5621 64.1589 60.3078 60.4536 61.4121C62.5414 64.0739 65.3439 67.2454 67.695 70.2376C68.0524 70.7095 68.3157 70.8983 68.6261 71.8422C68.927 72.7861 68.8236 73.107 68.8141 73.6828C68.6449 77.5056 68.2311 81.2245 68.1088 85.1133C71.6825 83.7636 75.1057 82.2817 78.717 80.9036C79.2719 80.7148 79.5352 80.526 80.5227 80.526C84.3785 81.3472 88.7986 83.6786 92.9365 85.1133C92.7673 81.2811 92.4099 77.5622 92.2218 73.6922C92.2218 73.107 92.1278 72.7861 92.4287 71.8422C92.7297 70.8983 93.0024 70.7095 93.3503 70.2376C95.7203 67.2548 98.2595 64.5081 100.592 61.4121C96.924 60.3738 93.2845 59.5621 89.5604 58.571C88.9961 58.3917 88.6763 58.3917 87.8864 57.8159C87.087 57.2307 86.9647 56.9003 86.6356 56.4189C84.5478 53.2285 82.7139 49.9721 80.5227 46.7629Z" fill="black"/>
<path d="M80.3965 18C67.1419 18.0104 54.4333 23.2777 45.0616 32.6451C35.6899 42.0124 30.4214 54.7141 30.4131 67.9605C30.4193 81.2068 35.6874 93.9088 45.0598 103.275C54.4321 112.642 67.142 117.907 80.3965 117.913C93.6509 117.907 106.361 112.642 115.733 103.275C125.105 93.9088 130.374 81.2068 130.38 67.9605C130.371 54.7127 125.102 42.0099 115.729 32.6423C106.355 23.2747 93.6445 18.0083 80.3886 18H80.3965ZM80.3965 22.1614C86.4144 22.1593 92.3738 23.3427 97.9339 25.6437C103.494 27.9448 108.546 31.3185 112.8 35.572C117.055 39.8254 120.429 44.8752 122.73 50.4327C125.03 55.9901 126.212 61.9462 126.208 67.9605C126.208 93.2751 105.727 113.744 80.3965 113.744C55.0663 113.744 34.5849 93.2751 34.5849 67.9605C34.5808 61.9469 35.7625 55.9914 38.0626 50.4345C40.3627 44.8776 43.7361 39.8281 47.9898 35.5748C52.2436 31.3214 57.2944 27.9475 62.8536 25.646C68.4128 23.3445 74.3713 22.1604 80.3886 22.1614H80.3965Z" fill="black"/>
</svg>
