<svg width="106" height="114" viewBox="0 0 106 114" fill="none" xmlns="http://www.w3.org/2000/svg">
<path d="M0.00146411 81.9975L79.6547 81.9448V71.155C79.6547 54.2243 65.8809 40.4504 48.9502 40.4504H30.6519C13.7504 40.4504 0 54.2243 0 71.155V81.996L0.00146411 81.9975ZM39.8193 37.5044C50.1596 37.5044 58.5715 29.0925 58.5715 18.7522C58.5715 8.41191 50.1596 0 39.8193 0C29.479 0 21.0671 8.41191 21.0671 18.7522C21.0671 29.0925 29.479 37.5044 39.8193 37.5044Z" fill="black"/>
<circle cx="80.75" cy="88.75" r="18.75" fill="white"/>
<path d="M89.7502 98.0208V91.4939C89.7502 90.5931 90.0308 90.3125 90.9168 90.3125H100.264C101.062 90.3125 101.386 90.6374 101.386 91.4348V102.288C101.386 102.658 101.446 102.805 101.859 102.791C102.612 102.746 103.779 102.776 104.532 102.776C104.768 102.776 104.975 102.805 105.078 103.042C105.182 103.278 105.093 103.455 104.945 103.632C102.922 106.01 98.0935 111.075 96.0704 113.452C95.7603 113.821 95.524 113.821 95.1992 113.437C93.1909 111.075 88.495 106.024 86.4867 103.662C86.3243 103.47 86.2062 103.278 86.3391 103.027C86.472 102.776 86.6639 102.776 86.9002 102.776C87.6533 102.776 88.5393 102.746 89.2924 102.791C89.7059 102.805 89.7797 102.658 89.7797 102.288C89.7502 100.059 89.7502 100.251 89.7502 98.0208ZM80.0779 100.472C79.8712 100.339 79.7678 100.088 79.7973 99.8519C79.8121 99.1874 79.7973 98.5377 79.8121 97.8732C79.8121 97.696 79.753 97.6369 79.5906 97.6221C78.2025 97.4154 76.8883 96.869 75.766 96.0421C75.4411 95.8206 75.1458 95.5695 74.88 95.289C74.6732 95.0527 74.6437 94.8607 74.8357 94.6097C75.2639 94.0338 75.6922 93.4726 76.1352 92.9115C76.3714 92.6162 76.6077 92.5866 76.903 92.8377C77.8186 93.6646 78.9261 94.2405 80.1222 94.5063C81.1264 94.7131 82.0862 94.654 83.0017 94.1076C83.9616 93.5317 84.4341 92.0107 83.1789 91.0361C82.5292 90.534 81.7613 90.2387 80.9935 89.9138C80.0336 89.5151 79.059 89.1607 78.1435 88.6734C77.2279 88.1861 76.4157 87.5954 75.8103 86.739C75.1753 85.8382 74.9095 84.7454 75.0424 83.6527C75.2787 81.5263 76.5634 80.2268 78.424 79.3998C78.808 79.2374 79.2067 79.1193 79.6201 79.0454C79.7826 79.0159 79.7973 78.9421 79.7973 78.8092V76.668C79.7973 76.284 79.9598 76.1216 80.3437 76.1216H81.9976C82.3372 76.1216 82.4849 76.2693 82.4849 76.6089V78.7501C82.4849 78.8978 82.5292 78.9568 82.6769 78.9716C84.0797 79.134 85.4087 79.6952 86.5163 80.5664C86.5753 80.6107 86.6344 80.6698 86.6935 80.7288C86.9445 80.9651 86.974 81.098 86.7968 81.3934C86.4572 82.0136 86.1176 82.619 85.7779 83.2392C85.5859 83.5788 85.3201 83.6379 84.9953 83.3869C84.567 83.0472 84.1093 82.7519 83.6072 82.5156C82.5292 82.0136 81.4217 81.7921 80.2551 82.1022C79.4725 82.3089 78.7932 82.6781 78.5274 83.5198C78.3059 84.2138 78.5274 84.8783 79.0738 85.3509C79.7826 85.9858 80.6538 86.3107 81.5251 86.6504C82.5735 87.0638 83.622 87.4625 84.6261 87.9941C85.3349 88.3633 85.9551 88.8654 86.4572 89.4708C87.0036 90.1353 87.2546 90.9327 87.3284 91.7892C87.3284 91.8778 87.3432 91.9812 87.3432 92.0698C87.3875 92.1584 87.3284 92.2765 87.3875 92.3651V92.5128C87.3284 92.8524 87.358 93.2068 87.2694 93.5465C87.0479 94.403 86.6344 95.1856 86.029 95.8501C85.1577 96.8247 84.0502 97.3859 82.795 97.6664C82.6473 97.6664 82.544 97.7993 82.544 97.947V97.9765C82.5587 98.6263 82.544 99.2908 82.544 99.9553C82.544 100.206 82.4554 100.398 82.1896 100.472H80.0779Z" fill="black"/>
<path d="M82.4425 103.972C81.9847 104.016 81.5122 104.031 81.0397 104.031C72.3567 104.031 65.313 96.9874 65.313 88.3044C65.313 79.6215 72.3567 72.5777 81.0397 72.5777C89.7226 72.5777 96.7664 79.6215 96.7664 88.3044H101.344V88.2897C101.329 77.2441 92.0853 68 81.0544 68C69.8464 67.9853 60.75 77.0669 60.75 88.2749V88.3044C60.75 99.3501 70.0088 108.594 81.0397 108.594C82.8412 108.594 84.6428 108.358 86.3853 107.885L82.4425 103.972Z" fill="black"/>
</svg>
