<svg width="161" height="160" viewBox="0 0 161 160" fill="none" xmlns="http://www.w3.org/2000/svg">
<path d="M80.502 41.3359C82.1373 41.3359 83.4609 40.0123 83.4609 38.377V32.459C83.4609 30.8237 82.1373 29.5 80.502 29.5C78.8666 29.5 77.543 30.8237 77.543 32.459V38.377C77.543 40.0123 78.8666 41.3359 80.502 41.3359ZM94.4299 46.3869L100.348 40.469C101.504 39.3132 101.504 37.4407 100.348 36.285C99.1919 35.1292 97.3196 35.129 96.1639 36.285L90.2459 42.2029C89.0899 43.3587 89.0899 45.2311 90.2459 46.3869C91.4019 47.5427 93.2741 47.5429 94.4299 46.3869ZM66.574 46.3869C67.7298 47.5429 69.6022 47.5429 70.758 46.3869C71.9138 45.2309 71.914 43.3587 70.758 42.2029L64.84 36.285C63.6843 35.129 61.8118 35.129 60.656 36.285C59.5003 37.4409 59.5001 39.3132 60.656 40.469L66.574 46.3869ZM56.6328 71.3203C56.6328 64.7928 51.3244 59.4844 44.7969 59.4844C38.2694 59.4844 32.9609 64.7928 32.9609 71.3203C32.9609 77.8478 38.2694 83.1562 44.7969 83.1562C51.3244 83.1562 56.6328 77.8478 56.6328 71.3203Z" fill="black"/>
<path d="M80.5 53.3691C75.6052 53.3691 71.623 57.3515 71.623 62.2461C71.623 73.6658 62.1326 83.1562 50.7129 83.1562H44.7949C36.6376 83.1562 30 89.7938 30 97.9512V127.541C30 129.176 31.3237 130.5 32.959 130.5H56.6309C58.2636 130.5 59.5504 129.176 59.5504 127.544L59.5676 99.8729C76.8474 95.8014 89.377 80.2426 89.377 62.2461C89.377 57.3513 85.3946 53.3691 80.5 53.3691ZM128.041 71.3203C128.041 64.7928 122.733 59.4844 116.205 59.4844C109.678 59.4844 104.369 64.7928 104.369 71.3203C104.369 77.8478 109.678 83.1562 116.205 83.1562C122.733 83.1562 128.041 77.8478 128.041 71.3203Z" fill="black"/>
<path d="M128.039 71.3203C128.039 64.7928 122.731 59.4844 116.203 59.4844C109.676 59.4844 104.367 64.7928 104.367 71.3203C104.367 77.8478 109.676 83.1562 116.203 83.1562C122.731 83.1562 128.039 77.8478 128.039 71.3203Z" fill="#DCDCDC"/>
<path d="M116.204 83.1566H110.286C103.482 83.1566 97.2878 79.6174 93.5095 74.5347C91.7781 80.6438 88.7621 86.1879 84.7344 90.9353C89.4526 95.1004 95.2826 98.4062 101.43 99.8703L101.448 127.544C101.448 129.176 102.735 130.5 104.368 130.5H128.04C129.675 130.5 130.998 129.177 130.998 127.541V97.9515C130.998 89.7942 124.361 83.1566 116.204 83.1566Z" fill="#DCDCDC"/>
</svg>
