<svg width="161" height="160" viewBox="0 0 161 160" fill="none" xmlns="http://www.w3.org/2000/svg">
<path d="M52.0489 128.621V142.831C52.047 143.235 52.1653 143.63 52.3887 143.966C52.6122 144.303 52.9306 144.565 53.3035 144.72C53.6764 144.874 54.0869 144.915 54.4828 144.835C54.8787 144.756 55.242 144.561 55.5265 144.274L62.213 137.58L68.8995 144.274C69.1848 144.556 69.5468 144.746 69.9401 144.822C70.3334 144.899 70.7404 144.857 71.1101 144.703C71.4799 144.549 71.7959 144.289 72.0186 143.956C72.2412 143.623 72.3606 143.232 72.3618 142.831V128.621H52.0489Z" fill="black"/>
<path d="M45.9783 23.0077C40.3742 23.0077 35.8219 27.5601 35.8219 33.149V126.601C35.8219 132.19 40.3819 136.742 45.9706 136.742C48.7419 136.803 48.7419 132.62 45.9706 132.681C45.1688 132.689 44.3734 132.538 43.6308 132.235C42.8881 131.933 42.2131 131.486 41.645 130.92C41.077 130.354 40.6273 129.68 40.3221 128.939C40.0169 128.197 39.8624 127.403 39.8675 126.601C39.8675 123.185 42.5544 120.49 45.9706 120.49H121.119V130.662C121.125 130.929 121.077 131.195 120.977 131.444C120.878 131.692 120.728 131.918 120.539 132.106C120.349 132.295 120.123 132.444 119.875 132.542C119.626 132.641 119.36 132.688 119.092 132.681H78.4665C75.6952 132.62 75.6952 136.803 78.4665 136.75H119.092C120.706 136.744 122.251 136.101 123.393 134.96C124.534 133.82 125.179 132.275 125.188 130.662V29.0878C125.179 27.4744 124.534 25.9295 123.393 24.7893C122.251 23.6491 120.706 23.0061 119.092 23L45.9783 23.0077ZM45.9783 27.0611H119.092C120.251 27.0611 121.119 27.9286 121.119 29.0878V116.429H45.9706C43.6675 116.429 41.5718 117.235 39.8675 118.532V33.149C39.8675 29.7404 42.5698 27.0611 45.9783 27.0611ZM80.4932 47.3283C80.227 47.3323 79.9642 47.3887 79.7199 47.4943C79.4755 47.5999 79.2544 47.7525 79.069 47.9436C78.8837 48.1346 78.7378 48.3603 78.6397 48.6078C78.5415 48.8552 78.4931 49.1196 78.4972 49.3858V53.539C71.6418 53.9919 69.4079 57.4312 64.2798 57.508C62.3913 57.508 60.3569 56.7633 59.6046 56.0724C57.5319 54.1532 54.9371 57.2009 56.7488 58.9513C58.0846 60.241 60.1573 60.9703 61.3012 61.2237L54.2846 77.0075C54.1769 77.2677 54.1246 77.5474 54.131 77.829C54.131 77.829 54.1003 80.2779 55.3593 82.7883C56.6106 85.3063 59.2438 87.9779 64.2721 87.9779C69.3004 87.9779 71.9335 85.3063 73.1925 82.7883C74.4515 80.2779 74.4208 77.829 74.4208 77.829C74.4253 77.5469 74.3704 77.267 74.2596 77.0075L67.243 61.239C71.3961 60.5788 73.8374 57.5157 80.4855 57.508V57.5234C87.1643 57.5234 89.5978 60.5941 93.7664 61.2544L86.7574 77.0229C86.6443 77.2818 86.5867 77.5617 86.5885 77.8443C86.5885 77.8443 86.5578 80.2933 87.8168 82.8036C89.0758 85.3217 91.709 87.9933 96.7373 87.9933C101.773 87.9933 104.399 85.3217 105.658 82.8036C106.917 80.2933 106.886 77.8443 106.886 77.8443C106.89 77.5622 106.836 77.2823 106.725 77.0229L99.7159 61.239C100.852 60.9857 102.925 60.2564 104.268 58.9666C106.08 57.2163 103.485 54.1608 101.405 56.0878C100.652 56.7787 98.6258 57.5234 96.7373 57.5234C91.6092 57.4466 89.3675 54.0073 82.5198 53.5544V49.4011C82.5239 49.135 82.4755 48.8706 82.3774 48.6231C82.2793 48.3757 82.1334 48.15 81.948 47.9589C81.7627 47.7679 81.5415 47.6152 81.2971 47.5096C81.0528 47.4041 80.79 47.3477 80.5239 47.3437L80.4932 47.3283ZM80.5239 61.5461C79.5105 61.5461 78.4972 62.2217 78.4972 63.5728V92.0467H70.26C67.5194 92.2309 67.7036 96.1692 70.3598 96.1078L90.6649 96.1232C93.3134 96.1923 93.5053 92.2463 90.757 92.0544H82.5275V63.5958C82.5275 62.2524 81.5295 61.5845 80.5315 61.5691L80.5239 61.5461ZM64.2798 64.5401L69.2697 75.7869H59.2898L64.2798 64.5401ZM96.7526 64.5555L101.743 75.8022H91.7627L96.7526 64.5555ZM58.5452 79.848H70.0067C70.0067 79.848 69.2927 83.9168 64.2798 83.9168C59.2668 83.9168 58.5452 79.848 58.5452 79.848ZM91.0181 79.8633H102.48C102.48 79.8633 101.758 83.9321 96.745 83.9321C91.732 83.9321 91.0181 79.8633 91.0181 79.8633ZM45.9706 124.551C43.2607 124.551 43.2607 128.62 45.9706 128.62H68.3101V137.947L63.6503 133.28C63.2693 132.902 62.7548 132.691 62.2185 132.691C61.6823 132.691 61.1678 132.902 60.7868 133.28L56.1193 137.947V134.708C56.1193 131.998 52.0583 131.998 52.0583 134.708V142.838C52.0579 143.241 52.1773 143.635 52.4013 143.97C52.6253 144.305 52.9438 144.566 53.3164 144.72C53.689 144.874 54.0989 144.913 54.494 144.834C54.8892 144.754 55.2518 144.559 55.5359 144.273L62.2224 137.587L68.9089 144.273C69.1937 144.554 69.555 144.744 69.9476 144.821C70.3401 144.897 70.7465 144.857 71.116 144.703C71.4854 144.55 71.8015 144.292 72.0248 143.96C72.248 143.628 72.3685 143.238 72.3711 142.838V128.62H115.031C117.741 128.62 117.741 124.551 115.031 124.551H45.9706Z" fill="black"/>
<path d="M90.6526 78.8581H103.347V84.6977H90.6526V78.8581Z" fill="black"/>
<path d="M57.9009 78.8581H70.5953V84.6977H57.9009V78.8581Z" fill="black"/>
</svg>
