<svg width="142" height="121" viewBox="0 0 142 121" fill="none" xmlns="http://www.w3.org/2000/svg">
<path d="M123.991 77.8327L103.432 87.5465C102.038 84.9524 99.9837 82.7721 97.4773 81.2255C94.9709 79.6789 92.101 78.8207 89.157 78.7375L70.1782 78.2158C67.1724 78.1299 64.2243 77.3687 61.5526 75.9887L59.6216 74.9881C54.7497 72.4488 49.3359 71.1256 43.8419 71.1314C38.348 71.1371 32.9369 72.4717 28.0704 75.0212L28.1908 70.6462C28.2003 70.3017 28.1419 69.9586 28.0189 69.6366C27.8958 69.3146 27.7106 69.02 27.4736 68.7696C27.2367 68.5192 26.9528 68.3179 26.6381 68.1773C26.3234 68.0367 25.984 67.9594 25.6395 67.9499L4.82813 67.3775C4.48361 67.3679 4.14058 67.4264 3.81866 67.5495C3.49673 67.6726 3.20222 67.8579 2.95194 68.0949C2.70167 68.3318 2.50054 68.6158 2.36004 68.9305C2.21955 69.2452 2.14244 69.5846 2.13314 69.9291L0.87602 115.598C0.86641 115.942 0.924796 116.285 1.04784 116.608C1.17089 116.93 1.35618 117.224 1.59314 117.475C1.8301 117.725 2.11408 117.926 2.42885 118.067C2.74362 118.208 3.08302 118.285 3.42765 118.294L24.2387 118.867H24.3105C24.9943 118.867 25.6513 118.601 26.1414 118.124C26.6316 117.647 26.9163 116.998 26.935 116.314L26.995 114.129L32.4014 111.235C34.5226 110.093 37.005 109.821 39.3231 110.477L71.6086 119.538C71.665 119.555 71.7211 119.568 71.7791 119.581C74.1127 120.069 76.4904 120.314 78.8744 120.313C83.9235 120.316 88.9136 119.227 93.5025 117.121C93.6154 117.069 93.7242 117.009 93.8279 116.941L140.639 86.6623C141.201 86.2988 141.603 85.7345 141.762 85.0848C141.922 84.435 141.828 83.7488 141.499 83.1662C138.024 76.9997 130.315 74.6508 123.991 77.8327ZM6.19548 113.12L7.30759 72.6966L22.8713 73.1247L21.7592 113.549L6.19548 113.12ZM91.1382 112.433C85.4368 115.005 79.0695 115.716 72.9411 114.464L40.7429 105.426C37.1199 104.402 33.2407 104.826 29.9245 106.608L27.1616 108.088L27.9011 81.212C32.1994 78.3531 37.1862 76.6999 42.3411 76.425C47.4961 76.15 52.6304 77.2633 57.2085 79.6488L59.1397 80.6494C62.5146 82.3919 66.2379 83.3537 70.0345 83.4638L89.0146 83.9854C94.3456 84.1389 98.8731 87.9346 99.9547 93.1579L71.684 92.3774C70.2346 92.3381 69.0287 93.481 68.9877 94.9291C68.9686 95.625 69.2267 96.2999 69.7052 96.8055C70.1837 97.3112 70.8435 97.6061 71.5393 97.6254L102.738 98.4839H102.811C103.494 98.4835 104.151 98.2165 104.64 97.7398C105.13 97.263 105.414 96.6141 105.433 95.931C105.465 94.7904 105.38 93.6496 105.179 92.5264L126.266 82.5626C126.287 82.5537 126.307 82.5436 126.328 82.5331C127.788 81.7941 129.44 81.5197 131.06 81.7468C132.681 81.9739 134.194 82.6915 135.395 83.8033L91.1382 112.433Z" fill="black"/>
<path d="M49 30C49 46.5685 62.4313 60 79.0001 60C95.569 60 109 46.5685 109 30C109 13.4315 95.5687 0 79.0001 0C62.4396 0.0187114 49.0184 13.4395 49 30ZM79.0001 31.8958C74.0217 31.9237 69.8033 28.2367 69.1662 23.2986C68.5294 18.3624 71.6736 13.7238 76.4964 12.4882V9.95209C76.4964 8.80356 77.4269 7.87304 78.5754 7.87304C79.7239 7.87304 80.6545 8.80356 80.6545 9.95209V12.3617C85.3718 13.1601 88.8151 17.2611 88.7851 22.0471C88.7851 22.592 88.5686 23.1146 88.1833 23.4999C87.7979 23.8853 87.2753 24.1018 86.7304 24.1018C86.1854 24.1018 85.6628 23.8853 85.2775 23.4999C84.8921 23.1146 84.6757 22.592 84.6757 22.0471C84.6721 18.9062 82.1244 16.3633 78.9838 16.3668C75.8432 16.3701 73.3 18.919 73.3047 22.0598C73.3083 25.1992 75.8572 27.7422 78.9978 27.7377C84.0897 27.7665 88.3188 31.6742 88.7491 36.7489C89.1798 41.8223 85.6688 46.3864 80.6545 47.2727V49.7509C80.6545 50.8994 79.7239 51.8299 78.5754 51.8299C77.4269 51.8299 76.4964 50.8994 76.4964 49.7509V47.1453C72.1514 45.9976 69.1151 42.081 69.086 37.5876C69.0991 37.0384 69.3264 36.5161 69.7195 36.1323C70.1125 35.7485 70.6401 35.5336 71.1894 35.5336C71.7388 35.5336 72.2664 35.7485 72.6594 36.1323C73.0525 36.5161 73.2798 37.0384 73.2928 37.5876C73.3 40.4914 75.488 42.9266 78.3746 43.2435C78.4821 43.2264 78.5907 43.2175 78.6996 43.2168C78.8561 43.2168 79.0114 43.2352 79.1647 43.2702C82.2833 43.1936 84.7579 40.6203 84.7128 37.5018C84.6676 34.382 82.1187 31.8818 79.0001 31.8958Z" fill="black"/>
</svg>
