<svg width="346" height="40" viewBox="0 0 346 40" fill="none" xmlns="http://www.w3.org/2000/svg">
<path d="M35.639 0H11.1796C3.9622 0 0.199219 3.80011 0.199219 10.7315V40H11.6838V11.9248C11.6798 11.6198 11.7388 11.3173 11.8569 11.0366C11.975 10.7559 12.1497 10.5031 12.3699 10.2943C12.5901 10.0855 12.8509 9.92534 13.1358 9.82397C13.4206 9.72259 13.7233 9.68225 14.0244 9.70549H32.6211C32.9606 9.65962 33.306 9.69237 33.6312 9.80125C33.9563 9.91014 34.2527 10.0923 34.4978 10.334C34.7429 10.5756 34.9303 10.8705 35.0459 11.1961C35.1615 11.5218 35.2022 11.8697 35.1649 12.2136V18.2405C35.1649 19.7606 34.194 20.5206 32.6211 20.5206H17.2681V30.3249H35.639C42.7209 30.3249 46.5818 26.806 46.5818 19.2514V11.0355C46.5742 3.64051 42.879 0 35.639 0Z" fill="black"/>
<path d="M61.8077 27.5584V0H50.293V28.9189C50.293 36.2303 54.0108 39.9924 61.2809 39.9924H96.6529V30.3249H64.3665C62.7409 30.3249 61.8077 29.2761 61.8077 27.5584Z" fill="black"/>
<path d="M135.922 0H111.47C104.335 0 100.527 3.86092 100.527 11.0355V39.9924H112.02V12.2896C111.988 11.9452 112.031 11.598 112.146 11.2722C112.261 10.9463 112.445 10.6497 112.685 10.403C112.925 10.1563 113.215 9.9654 113.536 9.84362C113.856 9.72184 114.199 9.67211 114.541 9.69789H132.904C133.243 9.68345 133.581 9.74097 133.896 9.86672C134.212 9.99247 134.497 10.1837 134.735 10.4279C134.973 10.6722 135.157 10.9641 135.276 11.2848C135.395 11.6055 135.446 11.9478 135.425 12.2896V20.5586H117.604V30.3173H135.455V39.9848H146.895V11.0279C146.872 4.11172 142.808 0 135.922 0Z" fill="black"/>
<path d="M186.085 0H161.595C154.476 0 150.652 3.86092 150.652 11.0355V39.9924H162.144V12.2896C162.113 11.9452 162.156 11.598 162.271 11.2722C162.386 10.9463 162.57 10.6497 162.81 10.403C163.05 10.1563 163.34 9.9654 163.661 9.84362C163.981 9.72184 164.324 9.67211 164.666 9.69789H183.029C183.368 9.68345 183.706 9.74097 184.021 9.86672C184.337 9.99247 184.622 10.1837 184.86 10.4279C185.098 10.6722 185.282 10.9641 185.401 11.2848C185.52 11.6055 185.571 11.9478 185.55 12.2896V39.9924H196.982V11.0355C196.99 4.11172 192.933 0 186.085 0Z" fill="black"/>
<path d="M200.012 9.70549H215.237C215.529 9.6815 215.823 9.72289 216.098 9.82671C216.372 9.93053 216.621 10.0942 216.826 10.3062C217.03 10.5181 217.186 10.773 217.283 11.0528C217.379 11.3325 217.412 11.6303 217.382 11.9248V40H228.881V11.9248C228.844 11.6302 228.872 11.331 228.965 11.0492C229.058 10.7674 229.212 10.5103 229.417 10.2971C229.622 10.0838 229.871 9.9199 230.147 9.81748C230.423 9.71507 230.719 9.67679 231.011 9.70549H246.379V0H200.012V9.70549Z" fill="black"/>
<path d="M249.402 11.0355V28.9189C249.402 36.5875 253.549 39.9924 260.292 39.9924H295.664V30.3249H263.062C262.752 30.3549 262.438 30.3139 262.146 30.2049C261.853 30.0959 261.589 29.9218 261.372 29.6955C261.155 29.4692 260.991 29.1965 260.893 28.8975C260.795 28.5986 260.764 28.2812 260.804 27.9688V25.9168C260.777 25.6851 260.801 25.4503 260.874 25.229C260.947 25.0078 261.068 24.8056 261.228 24.6371C261.387 24.4685 261.582 24.3378 261.798 24.2542C262.013 24.1706 262.245 24.1362 262.475 24.1535H292.729V15.8693H262.505C262.275 15.878 262.047 15.8384 261.833 15.753C261.619 15.6675 261.426 15.5381 261.264 15.373C261.103 15.2078 260.977 15.0106 260.896 14.7938C260.814 14.577 260.777 14.3453 260.789 14.1136V12.2288C260.754 11.8963 260.792 11.56 260.9 11.2438C261.007 10.9277 261.183 10.6393 261.413 10.3993C261.644 10.1592 261.924 9.97332 262.234 9.85473C262.543 9.73615 262.875 9.68779 263.205 9.71309H295.687V0H260.315C253.715 0 249.402 3.2985 249.402 11.0355Z" fill="black"/>
<path d="M313.564 9.70549H345.798V0H310.426C303.697 0 299.543 3.3821 299.543 10.7847V28.9265C299.543 35.6223 302.38 40 310.426 40H345.798V30.3325H313.436C313.091 30.3218 312.752 30.242 312.438 30.0979C312.124 29.9537 311.842 29.7481 311.607 29.4928C311.373 29.2376 311.191 28.9378 311.072 28.611C310.953 28.2841 310.9 27.9367 310.915 27.5888V12.3884C310.892 12.0306 310.944 11.6721 311.069 11.3365C311.194 11.0009 311.388 10.696 311.639 10.4422C311.889 10.1883 312.191 9.99132 312.523 9.86429C312.855 9.73727 313.21 9.68313 313.564 9.70549Z" fill="black"/>
</svg>
