<svg width="534" height="74" viewBox="0 0 534 74" fill="none" xmlns="http://www.w3.org/2000/svg">
<mask id="path-1-inside-1_52460_2203" fill="white">
<path d="M510 0L534 37L510 74H0V0H510Z"/>
</mask>
<path d="M510 0L510.839 -0.544191L510.543 -1H510V0ZM534 37L534.839 37.5442L535.192 37L534.839 36.4558L534 37ZM510 74V75H510.543L510.839 74.5442L510 74ZM0 74H-1V75H0V74ZM0 0V-1H-1V0H0ZM510 0V-1H503.929V0V1H510V0ZM491.786 0V-1H479.643V0V1H491.786V0ZM467.5 0V-1H455.357V0V1H467.5V0ZM443.214 0V-1H431.071V0V1H443.214V0ZM418.929 0V-1H406.786V0V1H418.929V0ZM394.643 0V-1H382.5V0V1H394.643V0ZM370.357 0V-1H358.214V0V1H370.357V0ZM346.071 0V-1H333.929V0V1H346.071V0ZM321.786 0V-1H309.643V0V1H321.786V0ZM297.5 0V-1H285.357V0V1H297.5V0ZM273.214 0V-1H261.071V0V1H273.214V0ZM248.929 0V-1H236.786V0V1H248.929V0ZM224.643 0V-1H212.5V0V1H224.643V0ZM200.357 0V-1H188.214V0V1H200.357V0ZM176.071 0V-1H163.929V0V1H176.071V0ZM151.786 0V-1H139.643V0V1H151.786V0ZM127.5 0V-1H115.357V0V1H127.5V0ZM103.214 0V-1H91.0715V0V1H103.214V0ZM78.9286 0V-1H66.7858V0V1H78.9286V0ZM54.643 0V-1H42.5001V0V1H54.643V0ZM30.3572 0V-1H18.2144V0V1H30.3572V0ZM6.07153 0V-1H0V0V1H6.07153V0ZM0 0H-1V6.16667H0H1V0H0ZM0 18.5H-1V30.8333H0H1V18.5H0ZM0 43.1667H-1V55.5H0H1V43.1667H0ZM0 67.8333H-1V74H0H1V67.8333H0ZM0 74V75H6.07143V74V73H0V74ZM18.2143 74V75H30.3571V74V73H18.2143V74ZM42.5 74V75H54.6429V74V73H42.5V74ZM66.7857 74V75H78.9286V74V73H66.7857V74ZM91.0714 74V75H103.214V74V73H91.0714V74ZM115.357 74V75H127.5V74V73H115.357V74ZM139.643 74V75H151.786V74V73H139.643V74ZM163.929 74V75H176.071V74V73H163.929V74ZM188.214 74V75H200.357V74V73H188.214V74ZM212.5 74V75H224.643V74V73H212.5V74ZM236.786 74V75H248.929V74V73H236.786V74ZM261.071 74V75H273.214V74V73H261.071V74ZM285.357 74V75H297.5V74V73H285.357V74ZM309.643 74V75H321.786V74V73H309.643V74ZM333.929 74V75H346.071V74V73H333.929V74ZM358.214 74V75H370.357V74V73H358.214V74ZM382.5 74V75H394.643V74V73H382.5V74ZM406.786 74V75H418.928V74V73H406.786V74ZM431.071 74V75H443.214V74V73H431.071V74ZM455.357 74V75H467.5V74V73H455.357V74ZM479.643 74V75H491.786V74V73H479.643V74ZM503.928 74V75H510V74V73H503.928V74ZM510 74L510.839 74.5442L513.839 69.9192L513 69.375L512.161 68.8308L509.161 73.4558L510 74ZM519 60.125L519.839 60.6692L525.839 51.4192L525 50.875L524.161 50.3308L518.161 59.5808L519 60.125ZM531 41.625L531.839 42.1692L534.839 37.5442L534 37L533.161 36.4558L530.161 41.0808L531 41.625ZM534 37L534.839 36.4558L531.839 31.8308L531 32.375L530.161 32.9192L533.161 37.5442L534 37ZM525 23.125L525.839 22.5808L519.839 13.3308L519 13.875L518.161 14.4192L524.161 23.6692L525 23.125ZM513 4.625L513.839 4.08081L510.839 -0.544191L510 0L509.161 0.544191L512.161 5.16919L513 4.625ZM510 0L511.678 -1.08838L511.087 -2H510V0ZM534 37L535.678 38.0884L536.384 37L535.678 35.9116L534 37ZM510 74V76H511.087L511.678 75.0884L510 74ZM0 74H-2V76H0V74ZM0 0V-2H-2V0H0ZM510 0V-2H503.929V0V2H510V0ZM491.786 0V-2H479.643V0V2H491.786V0ZM467.5 0V-2H455.357V0V2H467.5V0ZM443.214 0V-2H431.071V0V2H443.214V0ZM418.929 0V-2H406.786V0V2H418.929V0ZM394.643 0V-2H382.5V0V2H394.643V0ZM370.357 0V-2H358.214V0V2H370.357V0ZM346.071 0V-2H333.929V0V2H346.071V0ZM321.786 0V-2H309.643V0V2H321.786V0ZM297.5 0V-2H285.357V0V2H297.5V0ZM273.214 0V-2H261.071V0V2H273.214V0ZM248.929 0V-2H236.786V0V2H248.929V0ZM224.643 0V-2H212.5V0V2H224.643V0ZM200.357 0V-2H188.214V0V2H200.357V0ZM176.071 0V-2H163.929V0V2H176.071V0ZM151.786 0V-2H139.643V0V2H151.786V0ZM127.5 0V-2H115.357V0V2H127.5V0ZM103.214 0V-2H91.0715V0V2H103.214V0ZM78.9286 0V-2H66.7858V0V2H78.9286V0ZM54.643 0V-2H42.5001V0V2H54.643V0ZM30.3572 0V-2H18.2144V0V2H30.3572V0ZM6.07153 0V-2H0V0V2H6.07153V0ZM0 0H-2V6.16667H0H2V0H0ZM0 18.5H-2V30.8333H0H2V18.5H0ZM0 43.1667H-2V55.5H0H2V43.1667H0ZM0 67.8333H-2V74H0H2V67.8333H0ZM0 74V76H6.07143V74V72H0V74ZM18.2143 74V76H30.3571V74V72H18.2143V74ZM42.5 74V76H54.6429V74V72H42.5V74ZM66.7857 74V76H78.9286V74V72H66.7857V74ZM91.0714 74V76H103.214V74V72H91.0714V74ZM115.357 74V76H127.5V74V72H115.357V74ZM139.643 74V76H151.786V74V72H139.643V74ZM163.929 74V76H176.071V74V72H163.929V74ZM188.214 74V76H200.357V74V72H188.214V74ZM212.5 74V76H224.643V74V72H212.5V74ZM236.786 74V76H248.929V74V72H236.786V74ZM261.071 74V76H273.214V74V72H261.071V74ZM285.357 74V76H297.5V74V72H285.357V74ZM309.643 74V76H321.786V74V72H309.643V74ZM333.929 74V76H346.071V74V72H333.929V74ZM358.214 74V76H370.357V74V72H358.214V74ZM382.5 74V76H394.643V74V72H382.5V74ZM406.786 74V76H418.928V74V72H406.786V74ZM431.071 74V76H443.214V74V72H431.071V74ZM455.357 74V76H467.5V74V72H455.357V74ZM479.643 74V76H491.786V74V72H479.643V74ZM503.928 74V76H510V74V72H503.928V74ZM510 74L511.678 75.0884L514.678 70.4634L513 69.375L511.322 68.2866L508.322 72.9116L510 74ZM519 60.125L520.678 61.2134L526.678 51.9634L525 50.875L523.322 49.7866L517.322 59.0366L519 60.125ZM531 41.625L532.678 42.7134L535.678 38.0884L534 37L532.322 35.9116L529.322 40.5366L531 41.625ZM534 37L535.678 35.9116L532.678 31.2866L531 32.375L529.322 33.4634L532.322 38.0884L534 37ZM525 23.125L526.678 22.0366L520.678 12.7866L519 13.875L517.322 14.9634L523.322 24.2134L525 23.125ZM513 4.625L514.678 3.53662L511.678 -1.08838L510 0L508.322 1.08838L511.322 5.71338L513 4.625Z" fill="black" mask="url(#path-1-inside-1_52460_2203)"/>
</svg>
